<?xml version="1.0" encoding="utf-8"?>
<!-- Generator: Adobe Illustrator 25.4.1, SVG Export Plug-In . SVG Version: 6.00 Build 0)  -->
<svg version="1.1" id="Layer_1" xmlns="http://www.w3.org/2000/svg" xmlns:xlink="http://www.w3.org/1999/xlink" x="0px" y="0px"
	 viewBox="0 0 1000 1000" style="enable-background:new 0 0 1000 1000;" xml:space="preserve">
<style type="text/css">
	.st0{fill:#FFCA17;}
	.st1{fill:#131313;}
</style>
<g>
	<path class="st0" d="M0,350h1000v300H0V350z"/>
	<path class="st1" d="M412.8,439.3c15.4-0.1,30.3,5.1,42.2,14.8v-12.6h21.4v136.6h-21.5v-12.5c-12,9.6-26.9,14.8-42.2,14.6
		c-18.7,0.3-36.7-7-49.8-20.2c-26-28.4-26-72,0-100.4C376,446.3,394.1,439,412.8,439.3z M264.1,438.8c16.8-0.3,33,6.2,44.9,18.1
		c12.1,12.4,18.6,29.9,18.8,50.6v7H217.2c0.6,25.1,21.3,45,46.4,44.7c18.3,0,31.4-7.8,41.2-24.5l1.2-2l18.6,12l-1.1,1.9
		c-12.6,21.7-33.3,33.2-59.9,33.2c-40.1,0-68.2-28.9-68.2-70.3C195.4,468.5,224.3,438.8,264.1,438.8L264.1,438.8z M835.3,438.8
		c16.8-0.3,33,6.2,44.9,18.1c12.1,12.4,18.6,29.9,18.8,50.6v7H788.4c0.6,25.1,21.3,45,46.4,44.7c18.3,0,31.4-7.8,41.2-24.5l1.2-2
		l18.6,12l-1.1,1.9c-12.6,21.7-33.3,33.2-59.9,33.2c-40.1,0-68.2-28.9-68.2-70.3C766.6,468.5,795.4,438.8,835.3,438.8L835.3,438.8z
		 M187.2,441.2v20.4h-62.4v116.5h-21.7V441.2L187.2,441.2z M697.7,439.3c31.1,0,50.5,21.4,50.5,55.7v82.7h-21.7v-82.7
		c0-21.5-12.3-35.5-31.4-35.5c-24.5,0-33.2,16.9-33.2,32.7v85.4h-21.7V495c0-21.8-11.8-35.5-31.1-35.5c-15.8,0-32.7,12.3-32.7,30.5
		v87.4h-21.7V441.2h21.7v13.3c9.5-10,22.8-15.5,36.7-15.1c22.1,0,34.2,11.2,40.7,21.7C663.8,447,680.3,438.9,697.7,439.3
		L697.7,439.3z M526.3,400.9v177h-21.7v-177L526.3,400.9z M411.7,461.1c-26.6,0-46.4,21-46.4,48.8c0,27.8,20,48.6,46.4,48.6
		c27.5,0,45.9-19.5,45.9-48.6C457.6,480.9,439.1,461.1,411.7,461.1z M263.7,459.2c-21.6-0.1-40.4,14.7-45.4,35.7h87.5
		C302.8,474.1,284.7,458.8,263.7,459.2z M834.8,459.2c-21.6-0.1-40.4,14.7-45.3,35.7H877C874,474.1,855.9,458.7,834.8,459.2
		L834.8,459.2z"/>
</g>
</svg>
